<?xml version="1.0" standalone="yes"?>
<svg xmlns="http://www.w3.org/2000/svg" width="593" height="359">
<path style="fill:#fffefe; stroke:none;" d="M0 0L0 359L593 359L593 0L0 0z"/>
<path style="fill:#f1974a; stroke:none;" d="M125 120L125 121L135 121L136 125L126 127L126 128C139.511 128 151.185 129.135 163 136.468C192.162 154.566 197.397 196.253 173.91 220.985C161.22 234.348 144.913 239 127 239L127 240L138 244L125 246C130.8 248.434 138.947 246.981 145 245.916C168.801 241.729 188.497 223.434 194.522 200C201.229 173.909 190.778 143.289 167 129.348C153.612 121.499 140.163 120 125 120M120 121L120 122L123 122L120 121z"/>
<path style="fill:#ec623c; stroke:none;" d="M138 244C132.704 239.276 125.499 239.667 119 237.652C109.34 234.656 100.166 229.25 93.0903 221.961C69.7708 197.937 73.9094 158.792 100 138.681C111.134 130.098 123.405 129.599 136 125L135 121C99.5376 121 67.7034 148.542 70.0903 186C72.16 218.482 102.608 254.275 138 244z"/>
<path style="fill:#f1974a; stroke:none;" d="M116.667 122.333L117.333 122.667L116.667 122.333z"/>
<path style="fill:#ec623c; stroke:none;" d="M136 122L137 123L136 122z"/>
<path style="fill:#f1974a; stroke:none;" d="M112.667 123.333L113.333 123.667L112.667 123.333M109.667 124.333L110.333 124.667L109.667 124.333M107.667 125.333L108.333 125.667L107.667 125.333M105 126L106 127L105 126M103 127L104 128L103 127M101.667 128.333L102.333 128.667L101.667 128.333M121.667 128.333L122.333 128.667L121.667 128.333z"/>
<path style="fill:#fffefe; stroke:none;" d="M123 128.515C115 130.155 106.544 133.61 100.001 138.515C53.295 173.527 88.104 249.688 145 237.714C152.915 236.048 160.558 232.86 167 227.96C212.263 193.53 179.997 116.831 123 128.515z"/>
<path style="fill:#f1974a; stroke:none;" d="M100 129L101 130L100 129M117 129L117 130L120 130L117 129M127 129L127 130L139 134L134 133L134 134L137 138L135 138L135 139L137 139L137 140L124 142L124 143L141 143L132 160L133 160L133 156L134 156L135 158L135 153C137.209 155.556 137.349 156.539 135 159L135 160C151.746 163.604 152.211 173.23 154.669 187C155.433 191.279 158.419 194.564 159 199L154 199C154.89 208.772 151.977 214.752 142 214L142 224L140 224C140.026 214.99 142.089 212.649 151 213L151 202L153 198L158 198C153.015 181.052 153.596 163.91 132 161L132 165C139.622 164.901 154.382 174.584 144.852 182.486C141.531 185.239 137.047 184.989 133 185L133 186L138 189C133.527 195.386 134.077 217.701 139 224L135 224L135 225L138 226L136 228L137 232L132 237C136.448 238.595 142.46 236.593 147 235.575C166.783 231.14 181.74 214.609 185.985 195C194.251 156.819 162.957 129 127 129M98 130L99 131L98 130M114.667 130.333L115.333 130.667L114.667 130.333M121 130L121 131L124 131L121 130z"/>
<path style="fill:#ec623c; stroke:none;" d="M131 235L134 237L137 232L138 226L135 225L135 224L139 224L136 222L138 189L132 185L132 187L126 191C111.366 190.192 109.577 175.354 122 168C117.72 172.411 113.624 177.382 115.434 183.995C117.667 192.151 126.128 189.819 128 183L132 184L135 177L138 178L139 173L136 169L134 167L133 167L135 172L135 173L127 170L129 170L122 168L122 167C126.365 165.821 128.049 164.339 126 160C130.431 157.592 126.439 151.411 123 150L120 143L137 140L137 139L135 138L137 138L135 137L134 134L134 133L139 134C128.075 122.545 104.986 136.279 96.0394 144.3C72.8151 165.123 75.0213 205.799 99.0147 224.985C107.22 231.546 120.331 238.147 131 235z"/>
<path style="fill:#f1974a; stroke:none;" d="M112.667 131.333L113.333 131.667L112.667 131.333M117.667 131.333L118.333 131.667L117.667 131.333M95 132L96 133L95 132M109.667 132.333L110.333 132.667L109.667 132.333M115 132L116 133L115 132M94 133L95 134L94 133M108 133L109 134L108 133M112.667 133.333L113.333 133.667L112.667 133.333M106 134L107 135L106 134M110 134L111 135L110 134M104 135L105 136L104 135M108 135L109 136L108 135z"/>
<path style="fill:#ec623c; stroke:none;" d="M136 135L137 136L136 135z"/>
<path style="fill:#f1974a; stroke:none;" d="M102 136L103 137L102 136M106 136L107 137L106 136M89 137L90 138L89 137M101 137L102 138L101 137M105 137L106 138L105 137M88 138L89 139L88 138M103 138L104 139L103 138M87 139L88 140L87 139M98 139L99 140L98 139M102 139L103 140L102 139z"/>
<path style="fill:#ec623c; stroke:none;" d="M138 139L140 141L138 139z"/>
<path style="fill:#f1974a; stroke:none;" d="M97 140L98 141L97 140M100 140L101 141L100 140M96 141L97 142L96 141M99 141L100 142L99 141z"/>
<path style="fill:#ec623c; stroke:none;" d="M142 141L143 142L142 141z"/>
<path style="fill:#f1974a; stroke:none;" d="M95 142L96 143L95 142M98 142L99 143L98 142z"/>
<path style="fill:#221f1e; stroke:none;" d="M120 143C122.398 147.303 131.709 156.139 126 160L126 161L129 161L122 167L122 168L129 167L129 173L132 173L132 167C134.435 167.214 136.76 167.483 138.998 168.573C144.136 171.075 148.657 178.136 141.941 181.821C138.601 183.654 134.508 182.607 131 184.008C127.843 185.27 124.613 189.337 121.015 188.964C115.267 188.368 114.135 180.146 116.178 176C117.614 173.087 120.152 170.658 122 168C113.78 171.261 107.828 191.586 121.004 191.262C124.898 191.166 127.718 187.773 131 186.149C135.71 183.819 143.032 185.437 146.393 180.852C152.982 171.861 138.473 165.876 132 165L132 161L136 161L136 160L132 160L141 143L120 143z"/>
<path style="fill:#f1974a; stroke:none;" d="M83 144L84 145L83 144z"/>
<path style="fill:#ec623c; stroke:none;" d="M140 144L141 145L140 144z"/>
<path style="fill:#f1974a; stroke:none;" d="M82 145L83 146L82 145M92 145L93 146L92 145M94 145L95 146L94 145z"/>
<path style="fill:#747ebb; stroke:none;" d="M139 145L140 146L139 145z"/>
<path style="fill:#f1974a; stroke:none;" d="M91 146L92 147L91 146M90 147L91 148L90 147z"/>
<path style="fill:#ec623c; stroke:none;" d="M138 147L139 148L138 147z"/>
<path style="fill:#747ebb; stroke:none;" d="M217 147L218 148L217 147z"/>
<path style="fill:#221f1e; stroke:none;" d="M218 147L218 186C225.561 186 237.089 188.147 243.985 184.682C251.978 180.666 251.669 169.784 244 166C256.873 145.536 231.545 147 218 147z"/>
<path style="fill:#747ebb; stroke:none;" d="M239 147L239 148L242 148L239 147z"/>
<path style="fill:#221f1e; stroke:none;" d="M329 147L315 186C322.222 185.974 324.359 184.063 326 177C330.127 177.456 335.013 176.384 338.867 178.375C345.051 181.57 343.64 185.97 352 186C349.073 173.35 343.69 147.011 329 147z"/>
<path style="fill:#f1974a; stroke:none;" d="M338 147L339 148L338 147z"/>
<path style="fill:#747ebb; stroke:none;" d="M469 147L469 165L470 165L469 147z"/>
<path style="fill:#221f1e; stroke:none;" d="M470 147L470 165C477.553 163.74 475 152.941 475 147L470 147z"/>
<path style="fill:#747ebb; stroke:none;" d="M494 147L495 148L494 147z"/>
<path style="fill:#221f1e; stroke:none;" d="M480 186L500.995 177.094L517 186C515.193 175.498 509.996 164.94 506.192 155C504.539 150.681 502.825 145.827 497.107 147.323C493.061 148.381 491.949 153.574 490.681 157C487.135 166.583 482.694 176.152 480 186z"/>
<path style="fill:#747ebb; stroke:none;" d="M503 147L504 148L503 147M521 147L521 175L522.028 185.397L530 187L530 186L522 186C522 174.828 525.311 157.274 521 147z"/>
<path style="fill:#221f1e; stroke:none;" d="M522 147L522 186L530 186L530 147L522 147z"/>
<path style="fill:#f1974a; stroke:none;" d="M80 148L81 149L80 148M89 148L90 149L89 148z"/>
<path style="fill:#747ebb; stroke:none;" d="M137 148L138 149L137 148z"/>
<path style="fill:#f1974a; stroke:none;" d="M217 148L217 186L218 186C218 175.089 221.211 158.036 217 148M328 148L329 149L328 148z"/>
<path style="fill:#747ebb; stroke:none;" d="M338 148L339 149L338 148z"/>
<path style="fill:#f1974a; stroke:none;" d="M91 149L92 150L91 149M123 149L124 150L123 149z"/>
<path style="fill:#ec623c; stroke:none;" d="M138 149L139 150L138 149M140 149L138 151L138 152L140 149z"/>
<path style="fill:#747ebb; stroke:none;" d="M245 149L246 150L245 149M328 149L329 150L328 149M493 149L494 150L493 149z"/>
<path style="fill:#f1974a; stroke:none;" d="M79 150L80 151L79 150M90 150L91 151L90 150z"/>
<path style="fill:#ec623c; stroke:none;" d="M136 150L137 151L136 150z"/>
<path style="fill:#747ebb; stroke:none;" d="M246 150L247 151L246 150M339 150L340 151L339 150M504 150L505 151L504 150z"/>
<path style="fill:#f1974a; stroke:none;" d="M78 151L79 152L78 151M87 151L88 152L87 151M89 151L90 152L89 151z"/>
<path style="fill:#ec623c; stroke:none;" d="M135 151L136 152L135 151z"/>
<path style="fill:#f1974a; stroke:none;" d="M247 151L248 152L247 151z"/>
<path style="fill:#747ebb; stroke:none;" d="M327 151L328 152L327 151z"/>
<path style="fill:#f1974a; stroke:none;" d="M492 151L493 152L492 151M86 152L87 153L86 152z"/>
<path style="fill:#747ebb; stroke:none;" d="M126 152L127 153L126 152M492 152L493 153L492 152z"/>
<path style="fill:#f1974a; stroke:none;" d="M505 152L506 153L505 152M77 153L78 154L77 153M88 153L89 154L88 153z"/>
<path style="fill:#ec623c; stroke:none;" d="M135 153L134 156L133 156L133 160C136.962 158.545 138.949 155.879 135 153z"/>
<path style="fill:#747ebb; stroke:none;" d="M227 153L228 154L227 153M229 153L230 154L229 153M231 153L232 154L231 153M233 153L234 154L233 153M340 153L341 154L340 153M505 153L506 154L505 153z"/>
<path style="fill:#f1974a; stroke:none;" d="M85 154L86 155L85 154M87 154L88 155L87 154z"/>
<path style="fill:#ec623c; stroke:none;" d="M133 154L134 155L133 154z"/>
<path style="fill:#f1974a; stroke:none;" d="M226 154L226 163L227 163L226 154z"/>
<path style="fill:#fffefe; stroke:none;" d="M227 154L227 163C241.894 162.998 241.9 154 227 154z"/>
<path style="fill:#747ebb; stroke:none;" d="M248 154L248 159L249 159L248 154M326 154L327 155L326 154M491 154L492 155L491 154z"/>
<path style="fill:#f1974a; stroke:none;" d="M76 155L77 156L76 155M127 155L128 160L129 160L127 155z"/>
<path style="fill:#747ebb; stroke:none;" d="M128 155L129 156L128 155M132 155L133 156L132 155z"/>
<path style="fill:#ec623c; stroke:none;" d="M134 155L135 156L134 155z"/>
<path style="fill:#747ebb; stroke:none;" d="M239 155L240 156L239 155z"/>
<path style="fill:#f1974a; stroke:none;" d="M341 155L342 156L341 155z"/>
<path style="fill:#747ebb; stroke:none;" d="M506 155L507 156L506 155z"/>
<path style="fill:#f1974a; stroke:none;" d="M84 156L85 157L84 156M86 156L87 157L86 156M325 156L326 157L325 156z"/>
<path style="fill:#747ebb; stroke:none;" d="M341 156L342 157L341 156z"/>
<path style="fill:#f1974a; stroke:none;" d="M75 157L76 158L75 157z"/>
<path style="fill:#747ebb; stroke:none;" d="M295 157L295 158L298 158L295 157z"/>
<path style="fill:#221f1e; stroke:none;" d="M287 178C290.924 189.437 315.744 190.47 312.523 176.015C310.84 168.462 299.447 169.61 295 164L312 166C309.322 155.98 287.694 153.391 288.257 165.997C288.528 172.072 306.832 176.186 304.029 179.867C300.173 184.931 292.141 176.758 287 178z"/>
<path style="fill:#747ebb; stroke:none;" d="M300 157L300 158L304 158L300 157z"/>
<path style="fill:#f1974a; stroke:none;" d="M304 157L305 158L304 157z"/>
<path style="fill:#747ebb; stroke:none;" d="M325 157L326 158L325 157M333 157L334 160L335 160L333 157M393 157L393 158L401 158L393 157z"/>
<path style="fill:#f1974a; stroke:none;" d="M430 157L431 158L430 157z"/>
<path style="fill:#747ebb; stroke:none;" d="M431 157L432 158L431 157z"/>
<path style="fill:#221f1e; stroke:none;" d="M425 163L424 163L424 158L417 158L417 186L424 186C424 176.293 422.551 165.13 435 164C434.74 156.173 428.215 156.855 425 163z"/>
<path style="fill:#747ebb; stroke:none;" d="M433.667 157.333L434.333 157.667L433.667 157.333z"/>
<path style="fill:#f1974a; stroke:none;" d="M444 157L445 158L444 157z"/>
<path style="fill:#747ebb; stroke:none;" d="M445 157L445 158L454 158L445 157M490 157L491 158L490 157M498 157L500 159L498 157z"/>
<path style="fill:#f1974a; stroke:none;" d="M83 158L84 159L83 158M85 158L86 159L85 158z"/>
<path style="fill:#747ebb; stroke:none;" d="M240 158L241 159L240 158M255 158L255 177L256 177L255 158z"/>
<path style="fill:#221f1e; stroke:none;" d="M256 158C256 170.874 254.756 197.231 275 183C275.796 186.716 278.637 186 282 186L282 158L275 158C275 162.445 276.66 185.795 266.279 179.802C260.638 176.545 263 163.457 263 158L256 158z"/>
<path style="fill:#747ebb; stroke:none;" d="M263 158L263 177L264 177L263 158M274 158L274 176L275 176L274 158z"/>
<path style="fill:#f1974a; stroke:none;" d="M282 158L283 159L282 158z"/>
<path style="fill:#747ebb; stroke:none;" d="M292 158L293 159L292 158M306 158L307 159L306 158z"/>
<path style="fill:#fffefe; stroke:none;" d="M333 158L329 171L338 171L333 158z"/>
<path style="fill:#747ebb; stroke:none;" d="M342 158L343 159L342 158M351 158L352 159L351 158z"/>
<path style="fill:#221f1e; stroke:none;" d="M352 158C353.252 166.356 368.324 188.916 354 190L354 196C371.537 195.998 375.987 172.703 380 158L372 158L366 177C362.389 168.854 362.685 158.127 352 158z"/>
<path style="fill:#747ebb; stroke:none;" d="M359 158L360 159L359 158M390 158L391 159L390 158z"/>
<path style="fill:#221f1e; stroke:none;" d="M391.004 158.653C373.835 164.11 384.062 192.155 401.999 185.891C419.814 179.67 409.668 152.72 391.004 158.653z"/>
<path style="fill:#747ebb; stroke:none;" d="M403 158L404 159L403 158M416 158L416 186L417 186L416 158M428 158L429 159L428 158M442 158L443 159L442 158z"/>
<path style="fill:#221f1e; stroke:none;" d="M443 177L437 177C438.636 189.137 461.565 191.423 462.467 178.001C463.167 167.575 447.635 171.421 445 163L462 166C459.121 157.607 441.001 152.89 438.323 164.015C435.794 174.517 449.459 171.404 453.248 177.235C457.276 183.432 445.374 179.769 443 177z"/>
<path style="fill:#747ebb; stroke:none;" d="M456 158L457 159L456 158z"/>
<path style="fill:#fffefe; stroke:none;" d="M498 158L494 171L503 171L498 158z"/>
<path style="fill:#747ebb; stroke:none;" d="M507 158L508 159L507 158z"/>
<path style="fill:#f1974a; stroke:none;" d="M74.3333 159.667L74.6667 160.333L74.3333 159.667z"/>
<path style="fill:#747ebb; stroke:none;" d="M290 159L291 160L290 159M308 159L309 160L308 159M324 159L325 160L324 159M332 159L333 160L332 159z"/>
<path style="fill:#f1974a; stroke:none;" d="M351 159L352 160L351 159z"/>
<path style="fill:#747ebb; stroke:none;" d="M388 159L389 160L388 159M405 159L406 160L405 159M440 159L441 160L440 159M458 159L459 160L458 159z"/>
<path style="fill:#f1974a; stroke:none;" d="M489 159L490 160L489 159M82 160L83 161L82 160M84 160L85 161L84 160z"/>
<path style="fill:#ec623c; stroke:none;" d="M135 162L138 160L135 162z"/>
<path style="fill:#f1974a; stroke:none;" d="M282 160L282 167L283 167L282 160z"/>
<path style="fill:#747ebb; stroke:none;" d="M289 160L290 161L289 160z"/>
<path style="fill:#f1974a; stroke:none;" d="M360 160L361 161L360 160z"/>
<path style="fill:#747ebb; stroke:none;" d="M371 160L372 161L371 160M379 160L380 161L379 160M406 160L407 161L406 160M439 160L440 161L439 160M459 160L460 161L459 160M489 160L490 161L489 160z"/>
<path style="fill:#f1974a; stroke:none;" d="M497 160L498 161L497 160M508 160L509 161L508 160z"/>
<path style="fill:#221f1e; stroke:none;" d="M122.667 161.333L123.333 161.667L122.667 161.333z"/>
<path style="fill:#f1974a; stroke:none;" d="M127 161L128 165L129 165L127 161z"/>
<path style="fill:#221f1e; stroke:none;" d="M138.667 161.333L139.333 161.667L138.667 161.333z"/>
<path style="fill:#ec623c; stroke:none;" d="M139 162L139 163L142 164L143 164L142 161L139 162z"/>
<path style="fill:#f1974a; stroke:none;" d="M247 161L248 162L247 161z"/>
<path style="fill:#747ebb; stroke:none;" d="M335 161L336 162L335 161M343 161L344 162L343 161M352 161L353 162L352 161M360 161L361 162L360 161z"/>
<path style="fill:#f1974a; stroke:none;" d="M438 161L439 162L438 161z"/>
<path style="fill:#747ebb; stroke:none;" d="M460 161L461 162L460 161M500 161L501 162L500 161M508 161L509 162L508 161z"/>
<path style="fill:#f1974a; stroke:none;" d="M73.3333 162.667L73.6667 163.333L73.3333 162.667M81.3333 162.667L81.6667 163.333L81.3333 162.667M83 162L84 163L83 162z"/>
<path style="fill:#221f1e; stroke:none;" d="M119 162L120 163L119 162z"/>
<path style="fill:#f1974a; stroke:none;" d="M122 162L123 163L122 162z"/>
<path style="fill:#221f1e; stroke:none;" d="M141 162L142 163L141 162z"/>
<path style="fill:#f1974a; stroke:none;" d="M237 162L238 163L237 162z"/>
<path style="fill:#747ebb; stroke:none;" d="M246 162L247 163L246 162M288 162L289 163L288 162M298 162L298 163L302 163L298 162z"/>
<path style="fill:#f1974a; stroke:none;" d="M311 162L312 163L311 162z"/>
<path style="fill:#747ebb; stroke:none;" d="M323 162L324 163L323 162M331 162L332 163L331 162z"/>
<path style="fill:#f1974a; stroke:none;" d="M335 162L336 163L335 162z"/>
<path style="fill:#747ebb; stroke:none;" d="M378 162L379 163L378 162M408 162L409 163L408 162M424 162L425 163L424 162M448 162L448 163L452 163L448 162M488 162L489 163L488 162M496 162L497 163L496 162z"/>
<path style="fill:#221f1e; stroke:none;" d="M117 163L111 169L118 164L117 163M143 163L144 164L143 163z"/>
<path style="fill:#ec623c; stroke:none;" d="M144.333 163.667L144.667 164.333L144.333 163.667z"/>
<path style="fill:#747ebb; stroke:none;" d="M245 163L246 164L245 163z"/>
<path style="fill:#f1974a; stroke:none;" d="M303 163L304 164L303 163z"/>
<path style="fill:#747ebb; stroke:none;" d="M311 163L312 164L311 163z"/>
<path style="fill:#f1974a; stroke:none;" d="M344 163L345 164L344 163M361 163L362 164L361 163z"/>
<path style="fill:#747ebb; stroke:none;" d="M370 163L371 164L370 163z"/>
<path style="fill:#f1974a; stroke:none;" d="M378 163L379 164L378 163z"/>
<path style="fill:#747ebb; stroke:none;" d="M384 163L385 164L384 163M391 166L395 164L391 166z"/>
<path style="fill:#fffefe; stroke:none;" d="M395.054 163.786C386.893 166.621 389.549 183.872 398.942 180.381C406.068 177.733 403.98 160.685 395.054 163.786z"/>
<path style="fill:#747ebb; stroke:none;" d="M399 163L400 164L399 163z"/>
<path style="fill:#f1974a; stroke:none;" d="M409 163L410 164L409 163M437 163L438 164L437 163z"/>
<path style="fill:#747ebb; stroke:none;" d="M445 163L446 164L445 163M453 163L454 164L453 163M461 163L462 164L461 163z"/>
<path style="fill:#f1974a; stroke:none;" d="M496 163L497 164L496 163z"/>
<path style="fill:#747ebb; stroke:none;" d="M509 163L510 164L509 163z"/>
<path style="fill:#ec623c; stroke:none;" d="M135 166L138 166L137 164L135 166z"/>
<path style="fill:#221f1e; stroke:none;" d="M145 164L147 166L145 164z"/>
<path style="fill:#ec623c; stroke:none;" d="M146 164L147 165L146 164z"/>
<path style="fill:#f1974a; stroke:none;" d="M287 164L288 165L287 164z"/>
<path style="fill:#747ebb; stroke:none;" d="M295.333 164.667L295.667 165.333L295.333 164.667M304 164L305 165L304 164z"/>
<path style="fill:#f1974a; stroke:none;" d="M322 164L323 165L322 164z"/>
<path style="fill:#747ebb; stroke:none;" d="M336 164L337 165L336 164M344 164L345 165L344 164M353 164L354 165L353 164M361 164L362 165L361 164M430 164L430 165L435 165L430 164M437 164L437 168L438 168L437 164M454.333 164.667L454.667 165.333L454.333 164.667M474 164L475 165L474 164M501 164L502 165L501 164z"/>
<path style="fill:#f1974a; stroke:none;" d="M72.3333 165.667L72.6667 166.333L72.3333 165.667M80 165L81 166L80 165M82 165L83 166L82 165z"/>
<path style="fill:#ec623c; stroke:none;" d="M147 165L150 169L147 165z"/>
<path style="fill:#747ebb; stroke:none;" d="M244 165L245 166L244 165M287.333 165.667L287.667 166.333L287.333 165.667M322 165L323 166L322 165M330 165L331 166L330 165z"/>
<path style="fill:#f1974a; stroke:none;" d="M336 165L337 166L336 165z"/>
<path style="fill:#747ebb; stroke:none;" d="M377 165L378 166L377 165M383 165L384 166L383 165z"/>
<path style="fill:#f1974a; stroke:none;" d="M410 165L411 166L410 165z"/>
<path style="fill:#747ebb; stroke:none;" d="M427 165L428 166L427 165M487 165L488 166L487 165M495 165L496 166L495 165z"/>
<path style="fill:#ec623c; stroke:none;" d="M139 166L140 167L139 166z"/>
<path style="fill:#221f1e; stroke:none;" d="M148 166L149 167L148 166z"/>
<path style="fill:#747ebb; stroke:none;" d="M246 166L247 167L246 166z"/>
<path style="fill:#f1974a; stroke:none;" d="M305 166L305 167L308 167L305 166M309 166L309 167L312 167L309 166z"/>
<path style="fill:#747ebb; stroke:none;" d="M345 166L346 167L345 166M354 166L355 167L354 166z"/>
<path style="fill:#f1974a; stroke:none;" d="M362 166L363 167L362 166z"/>
<path style="fill:#747ebb; stroke:none;" d="M369 166L370 167L369 166M402 166L403 167L402 166M410 166L411 167L410 166M426 166L427 167L426 166M445 166L446 167L445 166z"/>
<path style="fill:#f1974a; stroke:none;" d="M455.667 166.333L456.333 166.667L455.667 166.333M458 166L459 167L458 166M461 166L462 167L461 166z"/>
<path style="fill:#747ebb; stroke:none;" d="M510 166L511 167L510 166M125 167L126 168L125 167z"/>
<path style="fill:#f1974a; stroke:none;" d="M127 167L129 169L129 167L127 167M132 167C132.013 170.194 131.597 172.271 135 173L135 172L132 167M134 167L136 169L139 173L138 178L135 177L132 183C135.824 182.115 141.477 183.4 144.393 180.296C148.662 175.752 142.497 169.932 138 170L134 167z"/>
<path style="fill:#ec623c; stroke:none;" d="M135 167L136 168L135 167z"/>
<path style="fill:#747ebb; stroke:none;" d="M136 167L137 168L136 167z"/>
<path style="fill:#ec623c; stroke:none;" d="M141 167L142 168L141 167z"/>
<path style="fill:#221f1e; stroke:none;" d="M149 167L150 168L149 167z"/>
<path style="fill:#747ebb; stroke:none;" d="M247 167L248 168L247 167z"/>
<path style="fill:#f1974a; stroke:none;" d="M287 167L288 168L287 167z"/>
<path style="fill:#747ebb; stroke:none;" d="M297 167L298 168L297 167M321 167L322 168L321 167M337 167L338 168L337 167z"/>
<path style="fill:#f1974a; stroke:none;" d="M354 167L355 168L354 167z"/>
<path style="fill:#747ebb; stroke:none;" d="M362 167L363 168L362 167z"/>
<path style="fill:#f1974a; stroke:none;" d="M382 167L383 168L382 167z"/>
<path style="fill:#747ebb; stroke:none;" d="M390.333 167.667L390.667 168.333L390.333 167.667z"/>
<path style="fill:#f1974a; stroke:none;" d="M447 167L448 168L447 167M486 167L487 168L486 167z"/>
<path style="fill:#747ebb; stroke:none;" d="M502 167L503 168L502 167z"/>
<path style="fill:#f1974a; stroke:none;" d="M79.3333 168.667L79.6667 169.333L79.3333 168.667M81 168L82 169L81 168z"/>
<path style="fill:#ec623c; stroke:none;" d="M138 168L138 170L140 168L138 168z"/>
<path style="fill:#221f1e; stroke:none;" d="M150 168L152 173L153 173L150 168z"/>
<path style="fill:#747ebb; stroke:none;" d="M248 168L249 169L248 168z"/>
<path style="fill:#f1974a; stroke:none;" d="M282.333 168.667L282.667 169.333L282.333 168.667z"/>
<path style="fill:#747ebb; stroke:none;" d="M299.667 168.333L300.333 168.667L299.667 168.333M329 168L330 169L329 168z"/>
<path style="fill:#f1974a; stroke:none;" d="M337 168L338 169L337 168z"/>
<path style="fill:#747ebb; stroke:none;" d="M376 168L377 169L376 168M382.333 168.667L382.667 169.333L382.333 168.667M403 168L403 171L404 171L403 168z"/>
<path style="fill:#f1974a; stroke:none;" d="M425 168L426 169L425 168M437 168L438 169L437 168z"/>
<path style="fill:#747ebb; stroke:none;" d="M449 168L450 169L449 168z"/>
<path style="fill:#f1974a; stroke:none;" d="M450 168L451 169L450 168z"/>
<path style="fill:#747ebb; stroke:none;" d="M486 168L487 169L486 168M494 168L495 169L494 168z"/>
<path style="fill:#f1974a; stroke:none;" d="M511 168L512 169L511 168M71.3333 169.667L71.6667 170.333L71.3333 169.667z"/>
<path style="fill:#ec623c; stroke:none;" d="M141 169L142 170L141 169M144 169L145 170L144 169M151 169L152 170L151 169z"/>
<path style="fill:#f1974a; stroke:none;" d="M226 169C226 173.192 225.175 177.52 229 180L229 179L226 169z"/>
<path style="fill:#fffefe; stroke:none;" d="M227 169C227 171.518 226.371 175.234 227.603 177.528C232.465 186.582 251.489 170.151 234.001 169.044C231.681 168.897 229.324 169 227 169z"/>
<path style="fill:#f1974a; stroke:none;" d="M238 169L239 170L238 169z"/>
<path style="fill:#747ebb; stroke:none;" d="M288 169L289 170L288 169M304 169L305 170L304 169z"/>
<path style="fill:#f1974a; stroke:none;" d="M305 169L306 170L305 169z"/>
<path style="fill:#747ebb; stroke:none;" d="M346 169L347 170L346 169M355 169L356 170L355 169z"/>
<path style="fill:#f1974a; stroke:none;" d="M363 169L364 170L363 169z"/>
<path style="fill:#747ebb; stroke:none;" d="M368.333 169.667L368.667 170.333L368.333 169.667z"/>
<path style="fill:#f1974a; stroke:none;" d="M411 169L412 170L411 169z"/>
<path style="fill:#747ebb; stroke:none;" d="M454 169L455 170L454 169z"/>
<path style="fill:#f1974a; stroke:none;" d="M455 169L456 170L455 169z"/>
<path style="fill:#747ebb; stroke:none;" d="M511 169L512 170L511 169z"/>
<path style="fill:#221f1e; stroke:none;" d="M110 170L111 171L110 170z"/>
<path style="fill:#f1974a; stroke:none;" d="M127 170L129 172L129 170L127 170z"/>
<path style="fill:#ec623c; stroke:none;" d="M137 170L139 172L137 170M142 170L143 171L142 170M145 170L146 171L145 170M152 170L153 171L152 170z"/>
<path style="fill:#747ebb; stroke:none;" d="M240 170L241 171L240 170M249 170L250 171L249 170M289 170L290 171L289 170M308 170L309 171L308 170M320 170L321 171L320 170M328 170L329 171L328 170M338 170L339 171L338 170M363 170L364 171L363 170M375 170L376 171L375 170M411 170L411 174L412 174L411 170M424 170L424 186L425 186L424 170M457.667 170.333L458.333 170.667L457.667 170.333M485 170L486 171L485 170M503 170L504 171L503 170z"/>
<path style="fill:#f1974a; stroke:none;" d="M80.3333 171.667L80.6667 172.333L80.3333 171.667z"/>
<path style="fill:#ec623c; stroke:none;" d="M143 171L144 172L143 171M151 171L152 172L151 171z"/>
<path style="fill:#747ebb; stroke:none;" d="M290 171L291 172L290 171M330 171L330 172L334 172L330 171M335 171L336 172L335 171z"/>
<path style="fill:#f1974a; stroke:none;" d="M375 171L376 172L375 171M403 171L403 174L404 174L403 171z"/>
<path style="fill:#747ebb; stroke:none;" d="M440 171L441 172L440 171M494 171L494 172L502 172L494 171z"/>
<path style="fill:#f1974a; stroke:none;" d="M512 171L513 172L512 171M78 172L78 175L79 175L78 172z"/>
<path style="fill:#221f1e; stroke:none;" d="M109 172L108 178L109 178L109 172z"/>
<path style="fill:#ec623c; stroke:none;" d="M144 172L145 173L144 172M153 172L152 174L154 174L153 172z"/>
<path style="fill:#747ebb; stroke:none;" d="M241 172L242 173L241 172z"/>
<path style="fill:#f1974a; stroke:none;" d="M282 172L282 177L283 177L282 172z"/>
<path style="fill:#747ebb; stroke:none;" d="M292 172L293 173L292 172z"/>
<path style="fill:#f1974a; stroke:none;" d="M311 172L312 173L311 172M319 172L320 173L319 172z"/>
<path style="fill:#747ebb; stroke:none;" d="M347 172L348 173L347 172M356 172L357 173L356 172z"/>
<path style="fill:#f1974a; stroke:none;" d="M364 172L365 173L364 172M367 172L368 173L367 172M441 172L442 173L441 172z"/>
<path style="fill:#747ebb; stroke:none;" d="M442 172L443 173L442 172z"/>
<path style="fill:#f1974a; stroke:none;" d="M130 173L131 174L130 173M135 173L136 174L135 173z"/>
<path style="fill:#ec623c; stroke:none;" d="M147 173L148 174L147 173z"/>
<path style="fill:#747ebb; stroke:none;" d="M250 173L250 177L251 177L250 173M294.667 173.333L295.333 173.667L294.667 173.333M319 173L320 174L319 173M364 173L365 174L364 173M367 173L368 174L367 173M374 173L375 174L374 173M444.667 173.333L445.333 173.667L444.667 173.333M484 173L485 174L484 173z"/>
<path style="fill:#f1974a; stroke:none;" d="M70 174L70 179L71 179L70 174M133 174L135 176L133 174z"/>
<path style="fill:#ec623c; stroke:none;" d="M145 174L146 175L145 174z"/>
<path style="fill:#747ebb; stroke:none;" d="M147 174L148 175L147 174z"/>
<path style="fill:#221f1e; stroke:none;" d="M153.333 174.667L153.667 175.333L153.333 174.667z"/>
<path style="fill:#f1974a; stroke:none;" d="M298 174L299 175L298 174z"/>
<path style="fill:#747ebb; stroke:none;" d="M299 174L300 175L299 174M312 174L313 175L312 174M348 174L349 175L348 174M357 174L358 175L357 174M382 174L382 177L383 177L382 174M403.333 174.667L403.667 175.333L403.333 174.667z"/>
<path style="fill:#f1974a; stroke:none;" d="M411.333 174.667L411.667 175.333L411.333 174.667z"/>
<path style="fill:#747ebb; stroke:none;" d="M448.667 174.333L449.333 174.667L448.667 174.333M462.333 174.667L462.667 175.333L462.333 174.667M513 174L514 175L513 174z"/>
<path style="fill:#ec623c; stroke:none;" d="M154 175L153 178L154 175z"/>
<path style="fill:#747ebb; stroke:none;" d="M302 175L303 176L302 175M318 175L319 176L318 175z"/>
<path style="fill:#f1974a; stroke:none;" d="M357 175L358 176L357 175M365.667 175.333L366.333 175.667L365.667 175.333M390 175L391 176L390 175z"/>
<path style="fill:#747ebb; stroke:none;" d="M452 175L453 176L452 175z"/>
<path style="fill:#f1974a; stroke:none;" d="M483 175L484 176L483 175z"/>
<path style="fill:#747ebb; stroke:none;" d="M115 176L116 177L115 176M241 176L242 177L241 176M304 176L305 177L304 176M365.667 176.333L366.333 176.667L365.667 176.333M373 176L374 177L373 176M390 176L391 177L390 176M483 176L484 177L483 176z"/>
<path style="fill:#221f1e; stroke:none;" d="M154 177L154 183L155 183L154 177z"/>
<path style="fill:#f1974a; stroke:none;" d="M250 177L251 178L250 177M255.333 177.667L255.667 178.333L255.333 177.667z"/>
<path style="fill:#747ebb; stroke:none;" d="M287 177L288 178L287 177M292.667 177.333L293.333 177.667L292.667 177.333M326 177L327 178L326 177M328 177L328 178L336 178L328 177M337.667 177.333L338.333 177.667L337.667 177.333M349 177L350 178L349 177M358 177L359 178L358 177M410.333 177.667L410.667 178.333L410.333 177.667M438 177L439 178L438 177M440 177L441 178L440 177M443 177L444 178L443 177M492 177L492 178L495 178L492 177M496 177L496 178L506 178L496 177M514 177L515 178L514 177z"/>
<path style="fill:#f1974a; stroke:none;" d="M79 178L79 189L80 189L79 178z"/>
<path style="fill:#ec623c; stroke:none;" d="M144 178L145 179L144 178z"/>
<path style="fill:#747ebb; stroke:none;" d="M240 178L241 179L240 178M273 178L274 179L273 178z"/>
<path style="fill:#f1974a; stroke:none;" d="M282 178L282 182L283 182L282 178z"/>
<path style="fill:#747ebb; stroke:none;" d="M294 178L295 179L294 178M305 178L306 179L305 178M317 178L318 179L317 178M372 178L373 179L372 178M391 178L392 179L391 178M482 178L483 179L482 178M506.333 178.667L506.667 179.333L506.333 178.667z"/>
<path style="fill:#f1974a; stroke:none;" d="M133 179L134 180L133 179z"/>
<path style="fill:#747ebb; stroke:none;" d="M226 179L227 180L226 179z"/>
<path style="fill:#f1974a; stroke:none;" d="M230 179L230 180L234 180L230 179M235 179L236 180L235 179z"/>
<path style="fill:#747ebb; stroke:none;" d="M236.667 179.333L237.333 179.667L236.667 179.333M249 179L250 180L249 179M264 179L265 180L264 179z"/>
<path style="fill:#f1974a; stroke:none;" d="M272 179L273 180L272 179z"/>
<path style="fill:#747ebb; stroke:none;" d="M325 179L326 180L325 179M341 179L342 180L341 179z"/>
<path style="fill:#f1974a; stroke:none;" d="M372 179L373 180L372 179M383 179L384 180L383 179z"/>
<path style="fill:#747ebb; stroke:none;" d="M401 179L402 180L401 179M444 179L445 180L444 179M462.333 179.667L462.667 180.333L462.333 179.667M490 179L491 180L490 179z"/>
<path style="fill:#f1974a; stroke:none;" d="M515 179L516 180L515 179M77 180L77 186L78 186L77 180z"/>
<path style="fill:#221f1e; stroke:none;" d="M107 180L108 181L107 180z"/>
<path style="fill:#ec623c; stroke:none;" d="M137 180L138 181L137 180M141 180L142 181L141 180M147 180L148 181L147 180z"/>
<path style="fill:#747ebb; stroke:none;" d="M271 180L272 181L271 180M287 180L288 181L287 180M295 180L296 181L295 180M304 180L305 181L304 180M312 180L313 181L312 180z"/>
<path style="fill:#f1974a; stroke:none;" d="M316 180L317 181L316 180M325 180L326 181L325 180z"/>
<path style="fill:#747ebb; stroke:none;" d="M350 180L351 181L350 180M359 180L360 181L359 180M393 180L394 181L393 180M400 180L401 181L400 180M409 180L410 181L409 180M445 180L446 181L445 180M454 180L455 181L454 180z"/>
<path style="fill:#f1974a; stroke:none;" d="M490 180L491 181L490 180z"/>
<path style="fill:#747ebb; stroke:none;" d="M515 180L516 181L515 180z"/>
<path style="fill:#ec623c; stroke:none;" d="M134 182L134 183L138 183L134 182M143 181L144 182L143 181M146 181L147 182L146 181z"/>
<path style="fill:#747ebb; stroke:none;" d="M248 181L249 182L248 181M256 181L257 182L256 181M297 181L298 182L297 181M302 181L303 182L302 181M371 181L372 182L371 181M396.667 181.333L397.333 181.667L396.667 181.333z"/>
<path style="fill:#f1974a; stroke:none;" d="M437 181L438 182L437 181M447 181L448 182L447 181z"/>
<path style="fill:#747ebb; stroke:none;" d="M452 181L453 182L452 181M481 181L482 182L481 181M507.333 181.667L507.667 182.333L507.333 181.667z"/>
<path style="fill:#ec623c; stroke:none;" d="M140.667 182.333L141.333 182.667L140.667 182.333M145 182L146 183L145 182z"/>
<path style="fill:#747ebb; stroke:none;" d="M247 182L248 183L247 182z"/>
<path style="fill:#f1974a; stroke:none;" d="M256 182L257 183L256 182z"/>
<path style="fill:#747ebb; stroke:none;" d="M288 182L289 183L288 182M311 182L312 183L311 182M324 182L325 183L324 182M342 182L343 183L342 182z"/>
<path style="fill:#f1974a; stroke:none;" d="M351 182L352 183L351 182z"/>
<path style="fill:#747ebb; stroke:none;" d="M360 182L361 183L360 182z"/>
<path style="fill:#f1974a; stroke:none;" d="M385 182L386 183L385 182z"/>
<path style="fill:#747ebb; stroke:none;" d="M438 182L439 183L438 182M461 182L462 183L461 182M489 182L490 183L489 182M516 182L517 183L516 182z"/>
<path style="fill:#f1974a; stroke:none;" d="M127 185L130 183L127 185z"/>
<path style="fill:#ec623c; stroke:none;" d="M144 183L145 184L144 183M153 183L153 185L155 185L155 183L153 183z"/>
<path style="fill:#747ebb; stroke:none;" d="M246 183L247 184L246 183z"/>
<path style="fill:#f1974a; stroke:none;" d="M282 183L282 186L283 186L282 183z"/>
<path style="fill:#747ebb; stroke:none;" d="M289 183L290 184L289 183M315 183L316 184L315 183M351 183L352 184L351 183z"/>
<path style="fill:#f1974a; stroke:none;" d="M360 183L361 184L360 183M386 183L387 184L386 183z"/>
<path style="fill:#747ebb; stroke:none;" d="M460 183L461 184L460 183M480 183L481 184L480 183z"/>
<path style="fill:#f1974a; stroke:none;" d="M489 183L490 184L489 183z"/>
<path style="fill:#221f1e; stroke:none;" d="M108 184L108 187L109 187L108 184z"/>
<path style="fill:#747ebb; stroke:none;" d="M129 184L130 185L129 184z"/>
<path style="fill:#ec623c; stroke:none;" d="M136 184L136 185L142 185L136 184z"/>
<path style="fill:#f1974a; stroke:none;" d="M245 184L246 185L245 184z"/>
<path style="fill:#747ebb; stroke:none;" d="M290 184L291 185L290 184M370 184L371 185L370 184M405 184L406 185L405 184M440 184L441 185L440 184M459 184L460 185L459 184M508 184L509 185L508 184z"/>
<path style="fill:#f1974a; stroke:none;" d="M126 185L127 186L126 185z"/>
<path style="fill:#747ebb; stroke:none;" d="M131 185L132 186L131 185z"/>
<path style="fill:#221f1e; stroke:none;" d="M153 185L158 198L153 201L154 201C160.041 195.519 157.331 191.409 153 185z"/>
<path style="fill:#747ebb; stroke:none;" d="M242 185L243 186L242 185M271 185L272 186L271 185M292 185L293 186L292 185z"/>
<path style="fill:#f1974a; stroke:none;" d="M308 185L309 186L308 185M314 185L315 186L314 185z"/>
<path style="fill:#747ebb; stroke:none;" d="M323 185L324 186L323 185M343 185L344 186L343 185M352 185L344 186L344 187L352 185M361 185L361 188L362 188L361 185M389 185L390 186L389 185M403 185L404 186L403 185z"/>
<path style="fill:#f1974a; stroke:none;" d="M441 185L442 186L441 185M458 185L459 186L458 185z"/>
<path style="fill:#747ebb; stroke:none;" d="M488 185L489 186L488 185z"/>
<path style="fill:#f1974a; stroke:none;" d="M508 185L509 186L508 185z"/>
<path style="fill:#747ebb; stroke:none;" d="M517 185L509 186L509 187L517 185z"/>
<path style="fill:#f1974a; stroke:none;" d="M131 186L132 187L131 186z"/>
<path style="fill:#747ebb; stroke:none;" d="M218 186L218 187L238 187L218 186z"/>
<path style="fill:#f1974a; stroke:none;" d="M238.667 186.333L239.333 186.667L238.667 186.333z"/>
<path style="fill:#747ebb; stroke:none;" d="M260 186L261 187L260 186M269 186L270 187L269 186M275 186L275 187L282 187L275 186M294.667 186.333L295.333 186.667L294.667 186.333M305 186L306 187L305 186z"/>
<path style="fill:#f1974a; stroke:none;" d="M306 186L307 187L306 186z"/>
<path style="fill:#747ebb; stroke:none;" d="M315 186L315 187L323 187L315 186z"/>
<path style="fill:#f1974a; stroke:none;" d="M391 186L392 187L391 186z"/>
<path style="fill:#747ebb; stroke:none;" d="M392 186L393 187L392 186M400 186L401 187L400 186z"/>
<path style="fill:#f1974a; stroke:none;" d="M401 186L402 187L401 186z"/>
<path style="fill:#747ebb; stroke:none;" d="M417 186L417 187L424 187L417 186M444.667 186.333L445.333 186.667L444.667 186.333M455 186L456 187L455 186M480 186L480 187L488 187L480 186z"/>
<path style="fill:#f1974a; stroke:none;" d="M521 186L522 187L521 186M131 188L131 189L135 188L131 188M263 187L264 188L263 187M265 187L266 188L265 187M301 187L302 188L301 187z"/>
<path style="fill:#747ebb; stroke:none;" d="M369 187L370 188L369 187z"/>
<path style="fill:#221f1e; stroke:none;" d="M109 188L117 202L118 202L109 188z"/>
<path style="fill:#ec623c; stroke:none;" d="M153 188L154 189L153 188z"/>
<path style="fill:#f1974a; stroke:none;" d="M70 189L70 193L71 193L70 189M126 189L127 190L126 189z"/>
<path style="fill:#ec623c; stroke:none;" d="M155 189L156 190L155 189z"/>
<path style="fill:#f1974a; stroke:none;" d="M359 189L360 190L359 189z"/>
<path style="fill:#747ebb; stroke:none;" d="M368 189L369 190L368 189z"/>
<path style="fill:#f1974a; stroke:none;" d="M125 190L126 191L125 190M132 190L132 191L135 192L132 190z"/>
<path style="fill:#ec623c; stroke:none;" d="M138.667 190.333L139.333 190.667L138.667 190.333M154 190L155 191L154 190z"/>
<path style="fill:#747ebb; stroke:none;" d="M119 191L120 192L119 191z"/>
<path style="fill:#ec623c; stroke:none;" d="M156 191L157 192L156 191z"/>
<path style="fill:#747ebb; stroke:none;" d="M367 191L368 192L367 191z"/>
<path style="fill:#f1974a; stroke:none;" d="M78 192L78 195L79 195L78 192M80.3333 193.667L80.6667 194.333L80.3333 193.667z"/>
<path style="fill:#ec623c; stroke:none;" d="M156 193L157 194L156 193z"/>
<path style="fill:#747ebb; stroke:none;" d="M366 193L367 194L366 193z"/>
<path style="fill:#ec623c; stroke:none;" d="M158 194L159 195L158 194z"/>
<path style="fill:#747ebb; stroke:none;" d="M365 194L366 195L365 194z"/>
<path style="fill:#ec623c; stroke:none;" d="M157 195L158 196L157 195z"/>
<path style="fill:#f1974a; stroke:none;" d="M364 195L365 196L364 195M71.3333 196.667L71.6667 197.333L71.3333 196.667M79.3333 196.667L79.6667 197.333L79.3333 196.667M354 196L355 197L354 196z"/>
<path style="fill:#747ebb; stroke:none;" d="M355 196L355 197L362 197L355 196z"/>
<path style="fill:#f1974a; stroke:none;" d="M81.3333 197.667L81.6667 198.333L81.3333 197.667z"/>
<path style="fill:#ec623c; stroke:none;" d="M153 198L154 199L153 198M158 198L159 199L158 198z"/>
<path style="fill:#f1974a; stroke:none;" d="M72.3333 200.667L72.6667 201.333L72.3333 200.667M80.3333 200.667L80.6667 201.333L80.3333 200.667z"/>
<path style="fill:#ec623c; stroke:none;" d="M154 200L151 202L153 204L151 212L154 200z"/>
<path style="fill:#f1974a; stroke:none;" d="M82 201L83 202L82 201z"/>
<path style="fill:#221f1e; stroke:none;" d="M153 202L154 203L153 202z"/>
<path style="fill:#f1974a; stroke:none;" d="M73.3333 203.667L73.6667 204.333L73.3333 203.667M81 203L82 204L81 203M83.3333 203.667L83.6667 204.333L83.3333 203.667z"/>
<path style="fill:#221f1e; stroke:none;" d="M118 203L118 206L119 206L118 203M151.667 203.333L152.333 203.667L151.667 203.333M153.333 204.667L153.667 205.333L153.333 204.667z"/>
<path style="fill:#747ebb; stroke:none;" d="M273.148 206.028C267.567 209.333 267.46 236.519 274.109 238.566C283.517 241.464 297.165 239 307 239L378 239C386.309 239 405.634 242.592 412.566 237.821C417.619 234.344 417.123 207.353 410.891 205.434C401.758 202.621 388.545 205 379 205L308 205C299.172 205 280.805 201.494 273.148 206.028z"/>
<path style="fill:#f1974a; stroke:none;" d="M74.3333 206.667L74.6667 207.333L74.3333 206.667M82 206L83 207L82 206M84 206L85 207L84 206z"/>
<path style="fill:#221f1e; stroke:none;" d="M152 206L153 207L152 206z"/>
<path style="fill:#fffefe; stroke:none;" d="M273.603 208.028C269.845 211.004 270.341 235.255 275.148 236.682C284.275 239.392 297.476 237 307 237L378 237C385.348 237 405.596 240.566 411.397 235.972C415.155 232.996 414.659 208.745 409.852 207.318C400.725 204.608 387.524 207 378 207L307 207C299.652 207 279.404 203.434 273.603 208.028z"/>
<path style="fill:#f1974a; stroke:none;" d="M83 208L84 209L83 208M85 208L86 209L85 208z"/>
<path style="fill:#221f1e; stroke:none;" d="M151 208L152 209L151 208z"/>
<path style="fill:#f1974a; stroke:none;" d="M75 209L76 210L75 209z"/>
<path style="fill:#ec623c; stroke:none;" d="M137 209L138 210L137 209M139 209L140 210L139 209z"/>
<path style="fill:#f1974a; stroke:none;" d="M84 210L85 211L84 210M86 210L87 211L86 210M76 211L77 212L76 211M87 211L88 212L87 211z"/>
<path style="fill:#ec623c; stroke:none;" d="M139 211L140 212L139 211z"/>
<path style="fill:#f1974a; stroke:none;" d="M85 212L86 213L85 212z"/>
<path style="fill:#ec623c; stroke:none;" d="M137 212L138 213L137 212M141 213L141 214L146 213L141 213z"/>
<path style="fill:#221f1e; stroke:none;" d="M151 212L150 214L151 212z"/>
<path style="fill:#f1974a; stroke:none;" d="M77 213L78 214L77 213M86 213L87 214L86 213M88 213L89 214L88 213z"/>
<path style="fill:#221f1e; stroke:none;" d="M118 213L118 217L119 217L118 213z"/>
<path style="fill:#ec623c; stroke:none;" d="M139 213L138 216L139 216L139 213z"/>
<path style="fill:#221f1e; stroke:none;" d="M142 213L143 214L142 213M144 213L144 214L147 214L144 213z"/>
<path style="fill:#ec623c; stroke:none;" d="M146 214L146 215L151 215L146 214M151 213L152 214L151 213z"/>
<path style="fill:#f1974a; stroke:none;" d="M89 214L90 215L89 214z"/>
<path style="fill:#221f1e; stroke:none;" d="M141 214L142 215L141 214M148 214L149 215L148 214z"/>
<path style="fill:#f1974a; stroke:none;" d="M286.667 214.333L287.333 214.667L286.667 214.333M315.667 214.333L316.333 214.667L315.667 214.333M380 214L381 215L380 214M87 215L88 216L87 215z"/>
<path style="fill:#ec623c; stroke:none;" d="M140 215L141 224L142 224L142 215L140 215z"/>
<path style="fill:#221f1e; stroke:none;" d="M285 215L281 228C286.166 225.542 287.775 226.52 293 228C291.369 223.18 290.236 216.695 285 215z"/>
<path style="fill:#747ebb; stroke:none;" d="M288 215L289 216L288 215M314.333 215.667L314.667 216.333L314.333 215.667z"/>
<path style="fill:#221f1e; stroke:none;" d="M315 215L315 217L317 217L317 215L315 215M336 215L339 217L336 215M341 215L341 228L344 228L344 215L341 215z"/>
<path style="fill:#f1974a; stroke:none;" d="M357 215L358 216L357 215z"/>
<path style="fill:#747ebb; stroke:none;" d="M358 215L356 219L357 219L360 216L358 215M379 215L379 228L380 228L379 215z"/>
<path style="fill:#221f1e; stroke:none;" d="M380 215L380 228L382 228L382 215L380 215z"/>
<path style="fill:#747ebb; stroke:none;" d="M382 215L382 228L383 228L382 215M386 215L384 219L388 216L386 215z"/>
<path style="fill:#f1974a; stroke:none;" d="M79 216L80 217L79 216M88 216L89 217L88 216z"/>
<path style="fill:#747ebb; stroke:none;" d="M284 216L285 217L284 216M336 216L337 217L336 216z"/>
<path style="fill:#221f1e; stroke:none;" d="M358 216L356 219L358 228L362 228L362 220L362 219L360 216L358 216M386 216L384 219L384 220L386 228L390 228L390 220L390 219L386 216z"/>
<path style="fill:#f1974a; stroke:none;" d="M91 217L92 218L91 217M80 218L81 219L80 218M92 218L93 219L92 218z"/>
<path style="fill:#747ebb; stroke:none;" d="M286 218L287 219L286 218M289 218L290 219L289 218M296 218L297 219L296 218z"/>
<path style="fill:#221f1e; stroke:none;" d="M294 223L300 227L294 225C297.777 230.821 304.862 225.031 296 221L296 220L302 221C298.54 218.106 295.414 218.566 294 223z"/>
<path style="fill:#747ebb; stroke:none;" d="M298.667 218.333L299.333 218.667L298.667 218.333M306 218L306 219L310 219L306 218z"/>
<path style="fill:#f1974a; stroke:none;" d="M314 218L315 219L314 218z"/>
<path style="fill:#747ebb; stroke:none;" d="M315 218L314 228L315 228L317 219L315 218M319 218L319 219L322 219L319 218M323 218L323 219L326 219L323 218M329 218L329 219L332 219L329 218z"/>
<path style="fill:#f1974a; stroke:none;" d="M332 218L334 220L332 218z"/>
<path style="fill:#747ebb; stroke:none;" d="M336 220L339 219L336 220M348 218L348 219L353 219L348 218M360.667 218.333L361.333 218.667L360.667 218.333M366 218L366 219L369 219L366 218z"/>
<path style="fill:#f1974a; stroke:none;" d="M369 218L370 219L369 218z"/>
<path style="fill:#747ebb; stroke:none;" d="M388.667 218.333L389.333 218.667L388.667 218.333z"/>
<path style="fill:#f1974a; stroke:none;" d="M90 219L91 220L90 219M93 219L94 220L93 219z"/>
<path style="fill:#747ebb; stroke:none;" d="M283 219L284 220L283 219z"/>
<path style="fill:#fffefe; stroke:none;" d="M286 219L285 223C287.923 222.361 287.856 221.134 286 219z"/>
<path style="fill:#747ebb; stroke:none;" d="M294 219L295 220L294 219M301 219L302 220L301 219z"/>
<path style="fill:#f1974a; stroke:none;" d="M304 219L305 220L304 219z"/>
<path style="fill:#221f1e; stroke:none;" d="M304 223L310 227L304 225C306.862 229.411 311.188 227.863 312 223L307 220L312 221C308.627 218.459 305.391 218.81 304 223z"/>
<path style="fill:#747ebb; stroke:none;" d="M311 219L312 220L311 219z"/>
<path style="fill:#221f1e; stroke:none;" d="M315 219L315 228L317 228L317 219L315 219M319 219L319 228L322 228L323 220L325 220L326 228L328 228L329 220L331 220L332 228L334 228C333.963 217.579 327.73 219.018 319 219z"/>
<path style="fill:#747ebb; stroke:none;" d="M327 219L328 220L327 219z"/>
<path style="fill:#221f1e; stroke:none;" d="M337 219C336.007 222.672 335.539 225.818 339 228L339 219L337 219z"/>
<path style="fill:#747ebb; stroke:none;" d="M346 219L347 220L346 219z"/>
<path style="fill:#221f1e; stroke:none;" d="M346 220L346 221L352 220C347.104 225.315 345.202 227.321 354 228L354 219L346 220z"/>
<path style="fill:#747ebb; stroke:none;" d="M364 219L365 220L364 219z"/>
<path style="fill:#221f1e; stroke:none;" d="M372 225L365 224L372 224C371.013 219.478 364.154 216.745 363.466 223.039C362.853 228.646 369.719 228.514 372 225z"/>
<path style="fill:#f1974a; stroke:none;" d="M91 220L92 221L91 220z"/>
<path style="fill:#747ebb; stroke:none;" d="M287 220L288 221L287 220z"/>
<path style="fill:#f1974a; stroke:none;" d="M290 220L291 221L290 220z"/>
<path style="fill:#747ebb; stroke:none;" d="M296 220L297 221L296 220z"/>
<path style="fill:#fffefe; stroke:none;" d="M297 220L300 222L297 220z"/>
<path style="fill:#747ebb; stroke:none;" d="M299 220L300 221L299 220z"/>
<path style="fill:#fffefe; stroke:none;" d="M307 220L310 222L307 220z"/>
<path style="fill:#747ebb; stroke:none;" d="M309 220L310 221L309 220M323.667 220.333L324.333 220.667L323.667 220.333M329.667 220.333L330.333 220.667L329.667 220.333z"/>
<path style="fill:#fffefe; stroke:none;" d="M349 220L352 222L349 220z"/>
<path style="fill:#747ebb; stroke:none;" d="M351 220L352 221L351 220M354 220L354 228L355 228L354 220z"/>
<path style="fill:#f1974a; stroke:none;" d="M356 220L357 221L356 220z"/>
<path style="fill:#747ebb; stroke:none;" d="M357 220L357 227L358 227L357 220z"/>
<path style="fill:#f1974a; stroke:none;" d="M360 220L361 221L360 220M363 220L364 221L363 220z"/>
<path style="fill:#747ebb; stroke:none;" d="M366 220L365 222L366 220z"/>
<path style="fill:#f1974a; stroke:none;" d="M367.667 220.333L368.333 220.667L367.667 220.333z"/>
<path style="fill:#747ebb; stroke:none;" d="M371 220L372 221L371 220M385 220L385 227L386 227L385 220M388 220L389 221L388 220z"/>
<path style="fill:#f1974a; stroke:none;" d="M389 220L390 221L389 220M82 221L83 222L82 221M92 221L93 222L92 221z"/>
<path style="fill:#221f1e; stroke:none;" d="M140 221L140 224L141 224L140 221z"/>
<path style="fill:#747ebb; stroke:none;" d="M282.333 221.667L282.667 222.333L282.333 221.667M285 221L286 222L285 221M290 221L291 222L290 221M299 223L302 222L299 223M308 222L308 223L312 222L308 222M346.667 221.333L347.333 221.667L346.667 221.333z"/>
<path style="fill:#f1974a; stroke:none;" d="M348.333 221.667L348.667 222.333L348.333 221.667z"/>
<path style="fill:#fffefe; stroke:none;" d="M366 221L366 222L369 222L366 221z"/>
<path style="fill:#747ebb; stroke:none;" d="M369 221L370 222L369 221z"/>
<path style="fill:#f1974a; stroke:none;" d="M83 222L84 223L83 222M93 222L94 223L93 222M300 222L301 223L300 222z"/>
<path style="fill:#747ebb; stroke:none;" d="M325 222L325 228L326 228L325 222M331 222L331 228L332 228L331 222M349.667 222.333L350.333 222.667L349.667 222.333M372.333 222.667L372.667 223.333L372.333 222.667z"/>
<path style="fill:#f1974a; stroke:none;" d="M94 223L95 224L94 223M97 223L98 224L97 223z"/>
<path style="fill:#747ebb; stroke:none;" d="M291 223L292 224L291 223M295 223L296 224L295 223M301 223L302 224L301 223M305 223L306 224L305 223M336 223L337 224L336 223M346 223L347 224L346 223M351 223L352 224L351 223z"/>
<path style="fill:#f1974a; stroke:none;" d="M388 223L389 224L388 223M95 224L96 225L95 224M98 224L99 225L98 224z"/>
<path style="fill:#747ebb; stroke:none;" d="M281 224L282 225L281 224M298 224L299 225L298 224M302 224L302 227L303 227L302 224z"/>
<path style="fill:#f1974a; stroke:none;" d="M308 224L309 225L308 224z"/>
<path style="fill:#747ebb; stroke:none;" d="M312 224L312 227L313 227L312 224z"/>
<path style="fill:#f1974a; stroke:none;" d="M345 224L346 225L345 224z"/>
<path style="fill:#747ebb; stroke:none;" d="M348 224L349 225L348 224z"/>
<path style="fill:#fffefe; stroke:none;" d="M348 225L348 226L352 225L348 225z"/>
<path style="fill:#747ebb; stroke:none;" d="M365 224L366 225L365 224z"/>
<path style="fill:#f1974a; stroke:none;" d="M96 225L97 226L96 225M99 225L100 226L99 225M284 225L285 226L284 225M287 225L288 226L287 225M293 225L294 226L293 225M296 225L297 226L296 225z"/>
<path style="fill:#747ebb; stroke:none;" d="M306 225L307 226L306 225M345 225L346 226L345 225z"/>
<path style="fill:#f1974a; stroke:none;" d="M351 225L352 226L351 225z"/>
<path style="fill:#747ebb; stroke:none;" d="M370 225L371 226L370 225z"/>
<path style="fill:#f1974a; stroke:none;" d="M388 225L389 226L388 225z"/>
<path style="fill:#747ebb; stroke:none;" d="M391 228L392 228L394 228L395 228L394 225L391 228z"/>
<path style="fill:#f1974a; stroke:none;" d="M394 225L395 226L394 225z"/>
<path style="fill:#747ebb; stroke:none;" d="M397 225L397 226L400 227L397 225M402 225L402 226L405 226L402 225z"/>
<path style="fill:#f1974a; stroke:none;" d="M100 226L101 227L100 226M280 226L281 227L280 226z"/>
<path style="fill:#747ebb; stroke:none;" d="M283 226L284 227L283 226M289 226L290 227L289 226M292 226L293 227L292 226M297 226L298 227L297 226z"/>
<path style="fill:#f1974a; stroke:none;" d="M298 226L299 227L298 226z"/>
<path style="fill:#747ebb; stroke:none;" d="M299 226L300 227L299 226M307 226L308 227L307 226z"/>
<path style="fill:#f1974a; stroke:none;" d="M308 226L309 227L308 226z"/>
<path style="fill:#747ebb; stroke:none;" d="M309 226L310 227L309 226z"/>
<path style="fill:#f1974a; stroke:none;" d="M345 226L346 227L345 226z"/>
<path style="fill:#747ebb; stroke:none;" d="M348 226L349 227L348 226z"/>
<path style="fill:#f1974a; stroke:none;" d="M349 226L350 227L349 226z"/>
<path style="fill:#747ebb; stroke:none;" d="M350 226L351 227L350 226M361 226L362 227L361 226z"/>
<path style="fill:#f1974a; stroke:none;" d="M363 226L364 227L363 226z"/>
<path style="fill:#747ebb; stroke:none;" d="M366 226L366 227L369 227L366 226z"/>
<path style="fill:#221f1e; stroke:none;" d="M392 226L392 228L394 228L394 226L392 226M397 226L400 228L397 226M402 226L402 228L405 228L405 226L402 226z"/>
<path style="fill:#f1974a; stroke:none;" d="M87 227L88 228L87 227M99 227L100 228L99 227M102 227L103 228L102 227z"/>
<path style="fill:#747ebb; stroke:none;" d="M280 227L281 228L280 227z"/>
<path style="fill:#f1974a; stroke:none;" d="M283 227L284 228L283 227z"/>
<path style="fill:#747ebb; stroke:none;" d="M301 227L302 228L301 227M311 227L312 228L311 227M336 227L337 228L336 227M346 227L347 228L346 227M351 227L352 228L351 227M364 227L365 228L364 227z"/>
<path style="fill:#f1974a; stroke:none;" d="M88 228L89 229L88 228M100 228L101 229L100 228M103 228L104 229L103 228M281.667 228.333L282.333 228.667L281.667 228.333M291 228L292 229L291 228M296 228L297 229L296 228z"/>
<path style="fill:#747ebb; stroke:none;" d="M297 228L297 229L300 229L297 228z"/>
<path style="fill:#f1974a; stroke:none;" d="M306 228L307 229L306 228z"/>
<path style="fill:#747ebb; stroke:none;" d="M307 228L307 229L310 229L307 228z"/>
<path style="fill:#f1974a; stroke:none;" d="M310 228L311 229L310 228M316 228L317 229L316 228M332 228L333 229L332 228M337 228L338 229L337 228M342 228L343 229L342 228z"/>
<path style="fill:#747ebb; stroke:none;" d="M348.667 228.333L349.333 228.667L348.667 228.333z"/>
<path style="fill:#f1974a; stroke:none;" d="M359 228L360 229L359 228z"/>
<path style="fill:#747ebb; stroke:none;" d="M360 228L361 229L360 228z"/>
<path style="fill:#f1974a; stroke:none;" d="M361 228L362 229L361 228z"/>
<path style="fill:#747ebb; stroke:none;" d="M366 228L366 229L369 229L366 228z"/>
<path style="fill:#f1974a; stroke:none;" d="M380 228L381 229L380 228M387 228L388 229L387 228z"/>
<path style="fill:#747ebb; stroke:none;" d="M388 228L389 229L388 228z"/>
<path style="fill:#f1974a; stroke:none;" d="M389 228L390 229L389 228M393 228L394 229L393 228M397.667 228.333L398.333 228.667L397.667 228.333M402.667 228.333L403.333 228.667L402.667 228.333M89 229L90 230L89 229M105 229L106 230L105 229M103 230L104 231L103 230M106.667 230.333L107.333 230.667L106.667 230.333M105 231L106 232L105 231M108.667 231.333L109.333 231.667L108.667 231.333M106.667 232.333L107.333 232.667L106.667 232.333M111 232L112 233L111 232M94 233L95 234L94 233M108 233L109 234L108 233M113.667 233.333L114.333 233.667L113.667 233.333z"/>
<path style="fill:#ec623c; stroke:none;" d="M138 236L138 235C136.04 234.347 135.446 234 138 234C135.473 233.126 135.016 235.359 138 236z"/>
<path style="fill:#f1974a; stroke:none;" d="M95 234L96 235L95 234M110 234L111 235L110 234M116.667 234.333L117.333 234.667L116.667 234.333M112.667 235.333L113.333 235.667L112.667 235.333M119 235L119 236L122 236L119 235M130 235L124 236L124 237L130 235M98 236L99 237L98 236M115.667 236.333L116.333 236.667L115.667 236.333M100 237L101 238L100 237M118.667 237.333L119.333 237.667L118.667 237.333M101 238L102 239L101 238M121 238L121 239L126 239L121 238M103 239L104 240L103 239M105 240L106 241L105 240M107 241L108 242L107 241z"/>
<path style="fill:#ec623c; stroke:none;" d="M136.667 241.333L137.333 241.667L136.667 241.333z"/>
<path style="fill:#f1974a; stroke:none;" d="M109.667 242.333L110.333 242.667L109.667 242.333M112.667 243.333L113.333 243.667L112.667 243.333M115 244L115 245L118 245L115 244M120 245L120 246L123 246L120 245z"/>
</svg>
